<svg width="44" height="44" viewBox="0 0 44 44" fill="none" xmlns="http://www.w3.org/2000/svg">
<path fill-rule="evenodd" clip-rule="evenodd" d="M22 44C34.1503 44 44 34.1503 44 22C44 9.84974 34.1503 0 22 0C9.84974 0 0 9.84974 0 22C0 34.1503 9.84974 44 22 44Z" fill="#D6F3E0"/>
<path d="M31.2499 13H12.7501C11.233 13 10 14.233 10 15.7501V28.2499C10 29.767 11.233 31 12.7501 31H31.2499C32.767 31 34 29.767 34 28.2499V15.7501C34 14.233 32.767 13 31.2499 13ZM17.5 16.9999C18.8781 16.9999 19.9999 18.122 19.9999 19.5001C19.9999 20.8779 18.8781 22 17.5 22C16.1219 22 15.0001 20.8779 15.0001 19.5001C15.0001 18.122 16.1219 16.9999 17.5 16.9999ZM22 26.2501C22 26.6641 21.664 27.0001 21.25 27.0001H13.75C13.336 27.0001 13 26.6641 13 26.2501V25.75C13 24.233 14.233 22.9999 15.7501 22.9999H19.2499C20.767 22.9999 22 24.233 22 25.75V26.2501ZM30.25 27.0001H24.7501C24.3361 27.0001 24.0001 26.6641 24.0001 26.2501C24.0001 25.8361 24.3361 25.5001 24.7501 25.5001H30.25C30.664 25.5001 31 25.8361 31 26.2501C31 26.6641 30.664 27.0001 30.25 27.0001ZM30.25 22.9999H24.7501C24.3361 22.9999 24.0001 22.6639 24.0001 22.2499C24.0001 21.8359 24.3361 21.4999 24.7501 21.4999H30.25C30.664 21.4999 31 21.8359 31 22.2499C31 22.6639 30.664 22.9999 30.25 22.9999ZM30.25 19H24.7501C24.3361 19 24.0001 18.664 24.0001 18.25C24.0001 17.836 24.3361 17.5 24.7501 17.5H30.25C30.664 17.5 31 17.836 31 18.25C31 18.664 30.664 19 30.25 19Z" fill="#09D687"/>
</svg>
