<svg width="44" height="44" viewBox="0 0 44 44" fill="none" xmlns="http://www.w3.org/2000/svg">
<path fill-rule="evenodd" clip-rule="evenodd" d="M22 44C34.1503 44 44 34.1503 44 22C44 9.84974 34.1503 0 22 0C9.84974 0 0 9.84974 0 22C0 34.1503 9.84974 44 22 44Z" fill="#FFF6D9"/>
<path d="M18.4784 23.2407C18.4784 22.94 18.2346 22.6965 17.9337 22.6965H16.0327C15.7322 22.6965 15.4883 22.94 15.4883 23.2407V25.1414C15.4883 25.4424 15.7322 25.6861 16.0327 25.6861H17.9337C18.2346 25.6861 18.4784 25.4424 18.4784 25.1414V23.2407Z" fill="#EEBA48"/>
<path d="M23.2282 23.2407C23.2282 22.94 22.9842 22.6965 22.6839 22.6965H20.7827C20.4822 22.6965 20.2383 22.94 20.2383 23.2407V25.1414C20.2383 25.4424 20.4822 25.6861 20.7827 25.6861H22.6839C22.9842 25.6861 23.2282 25.4424 23.2282 25.1414V23.2407Z" fill="#EEBA48"/>
<path d="M27.9804 23.2407C27.9804 22.94 27.7365 22.6965 27.4359 22.6965H25.535C25.2341 22.6965 24.9902 22.94 24.9902 23.2407V25.1414C24.9902 25.4424 25.2341 25.6861 25.535 25.6861H27.4359C27.7365 25.6861 27.9804 25.4424 27.9804 25.1414V23.2407Z" fill="#EEBA48"/>
<path d="M18.4784 27.9919C18.4784 27.6908 18.2346 27.4474 17.9337 27.4474H16.0327C15.7322 27.4474 15.4883 27.6908 15.4883 27.9919V29.8923C15.4883 30.1932 15.7322 30.4368 16.0327 30.4368H17.9337C18.2346 30.4368 18.4784 30.1931 18.4784 29.8923V27.9919Z" fill="#EEBA48"/>
<path d="M23.2282 27.9919C23.2282 27.6908 22.9842 27.4474 22.6839 27.4474H20.7827C20.4822 27.4474 20.2383 27.6908 20.2383 27.9919V29.8923C20.2383 30.1932 20.4822 30.4368 20.7827 30.4368H22.6839C22.9842 30.4368 23.2282 30.1931 23.2282 29.8923V27.9919Z" fill="#EEBA48"/>
<path d="M27.9804 27.9919C27.9804 27.6908 27.7365 27.4474 27.4362 27.4474H25.535C25.2341 27.4474 24.9902 27.6908 24.9902 27.9919V29.8923C24.9902 30.1932 25.2341 30.4368 25.535 30.4368H27.4362C27.7365 30.4368 27.9804 30.1931 27.9804 29.8923V27.9919Z" fill="#EEBA48"/>
<path d="M31.3791 12.6723V15.5755C31.3791 16.8877 30.3145 17.9452 29.0025 17.9452H27.5033C26.1912 17.9452 25.1126 16.8877 25.1126 15.5755V12.6619H18.3553V15.5755C18.3553 16.8877 17.2768 17.9452 15.9648 17.9452H14.4654C13.1534 17.9452 12.0889 16.8877 12.0889 15.5755V12.6723C10.9422 12.7069 10 13.6557 10 14.822V31.8361C10 33.0242 10.963 34.0001 12.1512 34.0001H31.3167C32.5031 34.0001 33.4679 33.0222 33.4679 31.8361V14.822C33.4679 13.6557 32.5257 12.7069 31.3791 12.6723ZM30.6827 30.7765C30.6827 31.29 30.2664 31.7066 29.7527 31.7066H13.6742C13.1606 31.7066 12.7442 31.29 12.7442 30.7765V21.9882C12.7442 21.4745 13.1605 21.0579 13.6742 21.0579H29.7527C30.2664 21.0579 30.6827 21.4745 30.6827 21.9882L30.6827 30.7765Z" fill="#EEBA48"/>
<path d="M14.4596 16.3887H15.9425C16.3926 16.3887 16.7576 16.0243 16.7576 15.5742V10.8148C16.7576 10.3647 16.3926 10 15.9425 10H14.4596C14.0094 10 13.6445 10.3647 13.6445 10.8148V15.5742C13.6445 16.0243 14.0094 16.3887 14.4596 16.3887Z" fill="#EEBA48"/>
<path d="M27.483 16.3887H28.9659C29.4157 16.3887 29.7807 16.0243 29.7807 15.5742V10.8148C29.7807 10.3647 29.4158 10 28.9659 10H27.483C27.0329 10 26.668 10.3647 26.668 10.8148V15.5742C26.668 16.0243 27.0329 16.3887 27.483 16.3887Z" fill="#EEBA48"/>
</svg>
