<svg width="44" height="44" viewBox="0 0 44 44" fill="none" xmlns="http://www.w3.org/2000/svg">
<path fill-rule="evenodd" clip-rule="evenodd" d="M22 44C34.1503 44 44 34.1503 44 22C44 9.84974 34.1503 0 22 0C9.84974 0 0 9.84974 0 22C0 34.1503 9.84974 44 22 44Z" fill="#FFF6D9"/>
<path d="M29.3415 10H19.0261C17.5184 10 16.2919 11.2246 16.2881 12.7312H15.4756C13.5139 12.7312 11.918 14.3272 11.918 16.2889V30.4424C11.918 32.4043 13.5139 34 15.4756 34H25.791C27.7527 34 29.3484 32.404 29.3484 30.4424V29.6299C30.855 29.6258 32.0796 28.3993 32.0796 26.8918V12.7383C32.0796 11.2284 30.8512 10 29.3415 10ZM27.71 18.2076V30.4424C27.71 30.9513 27.5079 31.4394 27.1481 31.7992C26.7882 32.1591 26.3002 32.3613 25.7913 32.3614H15.4756C15.2236 32.3615 14.974 32.3118 14.7412 32.2154C14.5083 32.119 14.2968 31.9776 14.1185 31.7994C13.9403 31.6212 13.799 31.4096 13.7026 31.1768C13.6061 30.944 13.5565 30.6944 13.5565 30.4424V16.2889C13.5565 16.0369 13.6062 15.7873 13.7026 15.5545C13.7991 15.3217 13.9404 15.1101 14.1186 14.9319C14.4785 14.572 14.9666 14.3698 15.4756 14.3698H25.791C26.2999 14.3699 26.788 14.5721 27.1478 14.932C27.5076 15.2919 27.7098 15.78 27.7098 16.2889L27.71 18.2076ZM30.441 26.8918C30.4407 27.1821 30.3256 27.4605 30.121 27.6663C29.9163 27.8721 29.6386 27.9888 29.3484 27.9908V16.2889C29.3484 14.3272 27.7524 12.7312 25.791 12.7312H17.9269C17.929 12.441 18.0457 12.1633 18.2516 11.9586C18.4574 11.754 18.7358 11.6389 19.0261 11.6386H29.3418C29.6333 11.6389 29.9128 11.7549 30.119 11.9611C30.3251 12.1673 30.441 12.4468 30.4413 12.7383V26.8918H30.441Z" fill="#EEBA48"/>
<path d="M15.7168 17.4591H25.5483V19.0977H15.7168V17.4591ZM15.7168 20.9749H25.5483V22.6135H15.7168V20.9749ZM15.7168 24.4908H25.5483V26.1293H15.7168V24.4908ZM15.7168 28.0066H25.5483V29.6452H15.7168V28.0066Z" fill="#EEBA48"/>
</svg>
