<svg width="44" height="44" viewBox="0 0 44 44" fill="none" xmlns="http://www.w3.org/2000/svg">
<path fill-rule="evenodd" clip-rule="evenodd" d="M22 44C34.1503 44 44 34.1503 44 22C44 9.84974 34.1503 0 22 0C9.84974 0 0 9.84974 0 22C0 34.1503 9.84974 44 22 44Z" fill="#EAE1FF"/>
<path d="M15.1094 34H29.1719C30.335 34 31.2812 33.0538 31.2812 31.8906V17.0312H26.3594C25.1962 17.0312 24.25 16.085 24.25 14.9219V10H15.1094C13.9462 10 13 10.9462 13 12.1094V31.8906C13 33.0538 13.9462 34 15.1094 34ZM17.9219 19.8906H26.3594C26.748 19.8906 27.0625 20.2051 27.0625 20.5938C27.0625 20.9824 26.748 21.2969 26.3594 21.2969H17.9219C17.5332 21.2969 17.2188 20.9824 17.2188 20.5938C17.2188 20.2051 17.5332 19.8906 17.9219 19.8906ZM17.9219 22.7031H26.3594C26.748 22.7031 27.0625 23.0176 27.0625 23.4062C27.0625 23.7949 26.748 24.1094 26.3594 24.1094H17.9219C17.5332 24.1094 17.2188 23.7949 17.2188 23.4062C17.2188 23.0176 17.5332 22.7031 17.9219 22.7031ZM17.9219 25.5156H26.3594C26.748 25.5156 27.0625 25.8301 27.0625 26.2188C27.0625 26.6074 26.748 26.9219 26.3594 26.9219H17.9219C17.5332 26.9219 17.2188 26.6074 17.2188 26.2188C17.2188 25.8301 17.5332 25.5156 17.9219 25.5156ZM17.9219 28.3281H23.5469C23.9355 28.3281 24.25 28.6426 24.25 29.0312C24.25 29.4199 23.9355 29.7344 23.5469 29.7344H17.9219C17.5332 29.7344 17.2188 29.4199 17.2188 29.0312C17.2188 28.6426 17.5332 28.3281 17.9219 28.3281Z" fill="#6728F2"/>
<path d="M26.3594 15.625H30.8693L25.6562 10.412V14.9219C25.6562 15.3098 25.9714 15.625 26.3594 15.625Z" fill="#6728F2"/>
</svg>
