<svg width="44" height="44" viewBox="0 0 44 44" fill="none" xmlns="http://www.w3.org/2000/svg">
<path fill-rule="evenodd" clip-rule="evenodd" d="M22 44C34.1503 44 44 34.1503 44 22C44 9.84974 34.1503 0 22 0C9.84974 0 0 9.84974 0 22C0 34.1503 9.84974 44 22 44Z" fill="#D6F3E0"/>
<g clip-path="url(#clip0_52_1438)">
<path fill-rule="evenodd" clip-rule="evenodd" d="M22 10.0002C15.3787 10.0002 10 15.3789 10 22.0002C10 28.6215 15.3787 34.0002 22 34.0002C28.6213 34.0002 34 28.6215 34 22.0002C34 15.3789 28.6213 10.0002 22 10.0002ZM27.7425 17.6356C27.7425 17.6356 27.7425 17.6356 27.7426 17.6356C28.1837 17.6357 28.6072 17.8112 28.9191 18.1231C29.5645 18.7687 29.5645 19.8307 28.9191 20.4762C28.9191 20.4763 28.9191 20.4763 28.9191 20.4763L23.751 25.6443C22.7924 26.6029 21.2081 26.6029 20.2494 25.6443L15.0814 20.4763C15.0813 20.4763 15.0813 20.4763 15.0813 20.4762C14.4359 19.8307 14.4359 18.7687 15.0813 18.1231C15.0813 18.1231 15.0813 18.1231 15.0814 18.123C15.7269 17.4777 16.7889 17.4777 17.4345 18.123C17.4345 18.1231 17.4345 18.1231 17.4345 18.1231L22.0002 22.6888L26.5659 18.1231C26.8778 17.8112 27.3013 17.6357 27.7425 17.6356H27.7425Z" fill="#30EA64"/>
</g>
<defs>
<clipPath id="clip0_52_1438">
<rect width="24" height="24" fill="white" transform="translate(10 10)"/>
</clipPath>
</defs>
</svg>
