<svg width="44" height="44" viewBox="0 0 44 44" fill="none" xmlns="http://www.w3.org/2000/svg">
<path fill-rule="evenodd" clip-rule="evenodd" d="M22 44C34.1503 44 44 34.1503 44 22C44 9.84974 34.1503 0 22 0C9.84974 0 0 9.84974 0 22C0 34.1503 9.84974 44 22 44Z" fill="#FFD8D8"/>
<path d="M27.75 12H15.75C14.4905 12.0011 13.283 12.5018 12.3924 13.3924C11.5018 14.283 11.0011 15.4905 11 16.75V28.75C11.0011 30.0095 11.5018 31.217 12.3924 32.1076C13.283 32.9982 14.4905 33.4989 15.75 33.5H27.75C29.0095 33.4989 30.217 32.9982 31.1076 32.1076C31.9982 31.217 32.4989 30.0095 32.5 28.75V16.75C32.4989 15.4905 31.9982 14.283 31.1076 13.3924C30.217 12.5018 29.0095 12.0011 27.75 12ZM31 28.75C30.9984 29.6115 30.6555 30.4372 30.0463 31.0463C29.4372 31.6555 28.6115 31.9984 27.75 32H15.75C14.8885 31.9984 14.0628 31.6555 13.4537 31.0463C12.8445 30.4372 12.5016 29.6115 12.5 28.75V16.75C12.5016 15.8885 12.8445 15.0628 13.4537 14.4537C14.0628 13.8445 14.8885 13.5016 15.75 13.5H27.75C28.6115 13.5016 29.4372 13.8445 30.0463 14.4537C30.6555 15.0628 30.9984 15.8885 31 16.75V28.75Z" fill="#FA1515"/>
<path d="M25.75 20.5C27.2688 20.5 28.5 19.2688 28.5 17.75C28.5 16.2312 27.2688 15 25.75 15C24.2312 15 23 16.2312 23 17.75C23 19.2688 24.2312 20.5 25.75 20.5Z" fill="#FA1515"/>
<path d="M26.5 32.75C26.5025 33.0035 26.4689 33.256 26.4 33.5H15.75C14.4905 33.4989 13.283 32.9982 12.3924 32.1076C11.5018 31.217 11.0011 30.0095 11 28.75V23.11C11.4826 22.869 11.9843 22.6683 12.5 22.51C14.0498 22.02 15.6905 21.8877 17.2988 22.1229C18.9071 22.3581 20.4412 22.9549 21.7857 23.8682C23.1302 24.7816 24.2502 25.9878 25.0616 27.3962C25.8729 28.8047 26.3544 30.3787 26.47 32C26.49 32.25 26.5 32.5 26.5 32.75Z" fill="#FA1515"/>
<path d="M32.5 25.93V28.75C32.4989 30.0095 31.9982 31.217 31.1076 32.1076C30.217 32.9982 29.0095 33.4989 27.75 33.5H27.42C27.4724 33.2534 27.4992 33.0021 27.5 32.75C27.5 32.47 27.49 32.2 27.47 31.93C27.3119 29.5962 26.4508 27.3649 25 25.53C26.0479 25.1802 27.1453 25.0012 28.25 25C29.1798 24.9986 30.1054 25.1265 31 25.38C31.5159 25.5168 32.018 25.7009 32.5 25.93Z" fill="#FA1515"/>
</svg>
