<svg width="44" height="44" viewBox="0 0 44 44" fill="none" xmlns="http://www.w3.org/2000/svg">
<path fill-rule="evenodd" clip-rule="evenodd" d="M22 44C34.1503 44 44 34.1503 44 22C44 9.84974 34.1503 0 22 0C9.84974 0 0 9.84974 0 22C0 34.1503 9.84974 44 22 44Z" fill="#D6F3E0"/>
<path d="M22.0005 10C17.2077 10 13.3086 13.8992 13.3086 18.6918C13.3086 24.6397 21.087 33.3715 21.4182 33.7404C21.7292 34.0868 22.2723 34.0862 22.5828 33.7404C22.914 33.3715 30.6924 24.6397 30.6924 18.6918C30.6923 13.8992 26.7932 10 22.0005 10ZM22.0005 23.065C19.5891 23.065 17.6274 21.1032 17.6274 18.6918C17.6274 16.2805 19.5892 14.3188 22.0005 14.3188C24.4118 14.3188 26.3735 16.2805 26.3735 18.6919C26.3735 21.1032 24.4118 23.065 22.0005 23.065Z" fill="#09D687"/>
</svg>
