<svg width="44" height="44" viewBox="0 0 44 44" fill="none" xmlns="http://www.w3.org/2000/svg">
<path fill-rule="evenodd" clip-rule="evenodd" d="M22 44C34.1503 44 44 34.1503 44 22C44 9.84974 34.1503 0 22 0C9.84974 0 0 9.84974 0 22C0 34.1503 9.84974 44 22 44Z" fill="#FCEFE2"/>
<g clip-path="url(#clip0_52_1451)">
<path d="M12.8965 30.6897H14.5517V31.5173H12.8965V30.6897Z" fill="#A98E6A"/>
<path d="M16.2069 26.5517H11.2414C10.5558 26.5517 10 27.1075 10 27.7931V32.7586C10 33.4442 10.5558 34 11.2414 34H16.2069C16.8925 34 17.4483 33.4442 17.4483 32.7586V27.7931C17.4483 27.1075 16.8925 26.5517 16.2069 26.5517ZM15.3793 29.4483H14.5517V29.0345H12.8966V29.8621H14.9655C15.194 29.8621 15.3793 30.0473 15.3793 30.2759V31.931C15.3793 32.1596 15.194 32.3448 14.9655 32.3448H12.4828C12.2542 32.3448 12.069 32.1596 12.069 31.931V28.6207C12.069 28.3922 12.2542 28.2069 12.4828 28.2069H14.9655C15.194 28.2069 15.3793 28.3922 15.3793 28.6207V29.4483Z" fill="#A98E6A"/>
<path d="M11.2414 25.7241H16.2069C16.8925 25.7241 17.4483 25.1683 17.4483 24.4827V20.3241C16.9764 20.2795 16.5347 20.0727 16.1982 19.739L14.7354 18.2758H11.2414C10.5558 18.2758 10 18.8316 10 19.5172V24.4827C10 25.1683 10.5558 25.7241 11.2414 25.7241ZM12.4828 23.2414H14.1379C14.3664 23.2414 14.5517 23.0561 14.5517 22.8276C14.5517 22.5991 14.3664 22.4138 14.1379 22.4138H13.3103C13.0818 22.4138 12.8966 22.2285 12.8966 22C12.8966 21.7715 13.0818 21.5862 13.3103 21.5862H14.1379C14.3664 21.5862 14.5517 21.4009 14.5517 21.1724C14.5517 20.9439 14.3664 20.7586 14.1379 20.7586H12.4828V19.931H14.1379C14.8235 19.9315 15.3789 20.4877 15.3784 21.1733C15.3782 21.4783 15.2657 21.7727 15.0623 22C15.5194 22.511 15.4757 23.2958 14.9646 23.7529C14.7373 23.9562 14.443 24.0687 14.1379 24.069H12.4828V23.2414Z" fill="#A98E6A"/>
<path d="M30.6906 30.6897H29.863C29.6345 30.6897 29.4492 30.8749 29.4492 31.1035C29.4492 31.332 29.6345 31.5173 29.863 31.5173H30.6906C30.9191 31.5173 31.1044 31.332 31.1044 31.1035C31.1044 30.8749 30.9191 30.6897 30.6906 30.6897Z" fill="#A98E6A"/>
<path d="M24.4823 26.5517H19.5168C18.8312 26.5517 18.2754 27.1075 18.2754 27.7931V32.7586C18.2754 33.4442 18.8312 34 19.5168 34H24.4823C25.1679 34 25.7237 33.4442 25.7237 32.7586V27.7931C25.7237 27.1075 25.1679 26.5517 24.4823 26.5517ZM22.8176 32.4346L22.009 32.255L22.7249 29.0345H21.3325L21.5642 29.7313L20.778 29.9928L20.3642 28.7515C20.292 28.5346 20.4092 28.3003 20.626 28.2281C20.6686 28.2139 20.7133 28.2067 20.7581 28.2069H23.2409C23.4694 28.2067 23.6549 28.3918 23.6551 28.6203C23.6551 28.6506 23.6518 28.6809 23.6452 28.7105L22.8176 32.4346Z" fill="#A98E6A"/>
<path d="M19.1237 19.739C18.886 19.9733 18.5949 20.146 18.2754 20.2422V24.4827C18.2754 25.1683 18.8312 25.7241 19.5168 25.7241H24.4823C25.1679 25.7241 25.7237 25.1683 25.7237 24.4827V19.5172C25.7237 18.8316 25.1679 18.2758 24.4823 18.2758H20.5864L19.1237 19.739ZM21.5775 20.0121L21.263 21.5862H22.4133V19.931H23.2409V21.5862H24.0685V22.4138H23.2409V24.069H22.4133V22.4138H20.7581C20.5296 22.4138 20.3443 22.2286 20.3443 22.0001C20.3443 21.9723 20.347 21.9445 20.3526 21.9172L20.7664 19.8483L21.5775 20.0121Z" fill="#A98E6A"/>
<path d="M32.7577 10H27.7922C27.1066 10 26.5508 10.5558 26.5508 11.2414V16.2069C26.5508 16.8925 27.1066 17.4483 27.7922 17.4483H32.7577C33.4433 17.4483 33.9991 16.8925 33.9991 16.2069V11.2414C33.9991 10.5558 33.4433 10 32.7577 10ZM31.9301 13.7241C31.9301 13.9527 31.7448 14.1379 31.5163 14.1379H29.4473V14.9655H31.9301V15.7931H29.0335C28.805 15.7931 28.6197 15.6078 28.6197 15.3793V13.7241C28.6197 13.4956 28.805 13.3103 29.0335 13.3103H31.1025V12.4828H28.6197V11.6552H31.5163C31.7448 11.6552 31.9301 11.8404 31.9301 12.069V13.7241Z" fill="#A98E6A"/>
<path d="M30.6906 29.0345H29.863C29.6345 29.0345 29.4492 29.2198 29.4492 29.4483C29.4492 29.6768 29.6345 29.8621 29.863 29.8621H30.6906C30.9191 29.8621 31.1044 29.6768 31.1044 29.4483C31.1044 29.2198 30.9191 29.0345 30.6906 29.0345Z" fill="#A98E6A"/>
<path d="M32.7577 18.2758H27.7922C27.1066 18.2758 26.5508 18.8316 26.5508 19.5172V24.4827C26.5508 25.1683 27.1066 25.7241 27.7922 25.7241H32.7577C33.4433 25.7241 33.9991 25.1683 33.9991 24.4827V19.5172C33.9991 18.8316 33.4433 18.2758 32.7577 18.2758ZM31.9301 20.7586H29.4473V21.5862H31.5163C31.7448 21.5862 31.9301 21.7715 31.9301 22V23.6552C31.9301 23.8837 31.7448 24.069 31.5163 24.069H28.6197V23.2414H31.1025V22.4138H29.0335C28.805 22.4138 28.6197 22.2285 28.6197 22V20.3448C28.6197 20.1163 28.805 19.931 29.0335 19.931H31.9301V20.7586Z" fill="#A98E6A"/>
<path d="M32.7577 26.5517H27.7922C27.1066 26.5517 26.5508 27.1075 26.5508 27.7931V32.7586C26.5508 33.4442 27.1066 34 27.7922 34H32.7577C33.4433 34 33.9991 33.4442 33.9991 32.7586V27.7931C33.9991 27.1075 33.4433 26.5517 32.7577 26.5517ZM31.9301 31.1035C31.9301 31.7891 31.3743 32.3448 30.6887 32.3448H29.8611C29.1785 32.3478 28.6227 31.7969 28.6196 31.1143C28.6182 30.8042 28.7335 30.505 28.9425 30.2759C28.4825 29.7716 28.5184 28.9898 29.0227 28.5298C29.2518 28.3208 29.551 28.2056 29.8611 28.2069H30.6887C31.3713 28.2039 31.9271 28.7548 31.9302 29.4374C31.9316 29.7475 31.8164 30.0468 31.6073 30.2759C31.814 30.5021 31.929 30.7971 31.9301 31.1035Z" fill="#A98E6A"/>
<path d="M16.7851 19.1539C17.2764 19.6223 18.049 19.6223 18.5404 19.1539L22.0514 15.6425C22.536 15.1577 22.536 14.3719 22.0514 13.8872L18.5404 10.3757C18.0556 9.89112 17.2698 9.89112 16.7851 10.3757L13.2736 13.8872C12.789 14.3719 12.789 15.1577 13.2736 15.6425L16.7851 19.1539ZM15.7857 13.8872C15.7857 13.7774 15.8294 13.6722 15.907 13.5946L16.4925 13.0091C16.6567 12.8539 16.9134 12.8539 17.0776 13.0091L19.711 15.6425L19.1259 16.2276L16.7851 13.8872L16.6133 14.0585V15.0574H15.7857V13.8872Z" fill="#A98E6A"/>
</g>
<defs>
<clipPath id="clip0_52_1451">
<rect width="24" height="24" fill="white" transform="translate(10 10)"/>
</clipPath>
</defs>
</svg>
