<svg width="44" height="44" viewBox="0 0 44 44" fill="none" xmlns="http://www.w3.org/2000/svg">
<path fill-rule="evenodd" clip-rule="evenodd" d="M22 44C34.1503 44 44 34.1503 44 22C44 9.84974 34.1503 0 22 0C9.84974 0 0 9.84974 0 22C0 34.1503 9.84974 44 22 44Z" fill="#D8FDFF"/>
<g clip-path="url(#clip0_52_1318)">
<path d="M33.2969 15.3548C32.9086 15.3548 32.5937 15.04 32.5937 14.6516V11.4063H29.3484C28.96 11.4063 28.6452 11.0914 28.6452 10.7031C28.6452 10.3148 28.96 10 29.3484 10H33.2969C33.6852 10 34 10.3148 34 10.7031V14.6516C34 15.04 33.6852 15.3548 33.2969 15.3548Z" fill="#00D9D9"/>
<path d="M10.7038 10H14.6523C15.0407 10 15.3555 10.3148 15.3555 10.7031C15.3555 11.0914 15.0407 11.4063 14.6523 11.4063H11.407V14.6516C11.407 15.04 11.0921 15.3548 10.7038 15.3548C10.3155 15.3548 10.0007 15.04 10.0007 14.6516V10.7031C10.0007 10.3148 10.3155 10 10.7038 10Z" fill="#00D9D9"/>
<path d="M10.7038 28.6452C11.0921 28.6452 11.407 28.96 11.407 29.3484V32.5938H14.6523C15.0407 32.5938 15.3555 32.9086 15.3555 33.2969C15.3555 33.6852 15.0407 34 14.6523 34H10.7038C10.3155 34 10.0007 33.6852 10.0007 33.2969V29.3484C10.0007 28.96 10.3155 28.6452 10.7038 28.6452Z" fill="#00D9D9"/>
<path d="M29.3484 32.5938H32.5937V29.3484C32.5937 28.96 32.9086 28.6452 33.2969 28.6452C33.6852 28.6452 34 28.96 34 29.3484V33.2969C34 33.6852 33.6852 34 33.2969 34H29.3484C28.96 34 28.6452 33.6852 28.6452 33.2969C28.6452 32.9086 28.96 32.5938 29.3484 32.5938Z" fill="#00D9D9"/>
<path d="M14.3287 18.9709V14.5305C14.3287 14.3102 14.5073 14.1316 14.7281 14.1316H22.0003H29.2725C29.4933 14.1316 29.6719 14.3102 29.6719 14.5305V18.9709C29.6719 19.1917 29.4933 19.3703 29.2725 19.3703H27.1519C26.9316 19.3703 26.753 19.1917 26.753 18.9709V17.4498C26.753 17.2291 26.5739 17.0505 26.3536 17.0505H23.8594C23.6386 17.0505 23.46 17.2291 23.46 17.4498V28.4252C23.46 28.6459 23.6386 28.8245 23.8594 28.8245H24.9502C25.1709 28.8245 25.3495 29.0031 25.3495 29.2239V31.3445C25.3495 31.5648 25.1709 31.7434 24.9502 31.7434H22.0003H19.0505C18.8297 31.7434 18.6511 31.5648 18.6511 31.3445V29.2239C18.6511 29.0031 18.8297 28.8245 19.0505 28.8245H20.1412C20.362 28.8245 20.5406 28.6459 20.5406 28.4252V17.4498C20.5406 17.2291 20.362 17.0505 20.1412 17.0505H17.647C17.4267 17.0505 17.2477 17.2291 17.2477 17.4498V18.9709C17.2477 19.1917 17.0691 19.3703 16.8488 19.3703H14.7281C14.5073 19.3703 14.3287 19.1917 14.3287 18.9709Z" fill="#00D9D9"/>
</g>
<defs>
<clipPath id="clip0_52_1318">
<rect width="24" height="24" fill="white" transform="matrix(-1 0 0 1 34 10)"/>
</clipPath>
</defs>
</svg>
