<svg width="44" height="44" viewBox="0 0 44 44" fill="none" xmlns="http://www.w3.org/2000/svg">
<path fill-rule="evenodd" clip-rule="evenodd" d="M22 44C34.1503 44 44 34.1503 44 22C44 9.84974 34.1503 0 22 0C9.84974 0 0 9.84974 0 22C0 34.1503 9.84974 44 22 44Z" fill="#D8FDFF"/>
<g clip-path="url(#clip0_52_1515)">
<path d="M30.4853 13.5147C28.2188 11.2482 25.2053 10 22 10C18.7947 10 15.7812 11.2482 13.5147 13.5147C11.2482 15.7812 10 18.7947 10 22C10 25.2053 11.2482 28.2188 13.5147 30.4853C15.7812 32.7517 18.7947 34 22 34C25.2053 34 28.2188 32.7518 30.4853 30.4853C32.7518 28.2188 34 25.2053 34 22C34 18.7947 32.7518 15.7812 30.4853 13.5147ZM22 31.6446C16.6819 31.6446 12.3554 27.3181 12.3554 22C12.3554 21.9913 12.3557 21.9827 12.3557 21.974C12.3557 21.9718 12.3554 21.9697 12.3554 21.9675C12.3554 21.9638 12.3558 21.9602 12.3559 21.9566C12.3793 16.7022 16.6256 12.4274 21.8689 12.3571C21.8799 12.3565 21.8908 12.3554 21.9019 12.3554C21.9085 12.3554 21.915 12.3562 21.9216 12.3564C21.9478 12.3562 21.9738 12.3554 22 12.3554C27.3182 12.3554 31.6447 16.682 31.6447 22C31.6447 27.3181 27.3181 31.6446 22 31.6446Z" fill="#00D9D9"/>
<path d="M29.3252 22.5794C28.933 22.5794 28.6151 22.2615 28.6151 21.8693C28.6151 21.4771 28.933 21.1592 29.3252 21.1592H30.181C29.779 17.2182 26.5828 14.0917 22.6111 13.7982V14.5433C22.6111 14.9355 22.2932 15.2534 21.901 15.2534C21.5089 15.2534 21.191 14.9355 21.191 14.5433V13.8152C17.278 14.1986 14.1612 17.3356 13.8085 21.2573H14.575C14.9672 21.2573 15.2851 21.5752 15.2851 21.9674C15.2851 22.3596 14.9672 22.6775 14.575 22.6775H13.8027C14.1292 26.6624 17.3086 29.8515 21.2891 30.1935V29.2934C21.2891 28.9012 21.607 28.5833 21.9992 28.5833C22.3914 28.5833 22.7093 28.9012 22.7093 29.2934V30.1935C26.7224 29.8486 29.9211 26.6099 30.203 22.5794H29.3252ZM24.8736 20.1298L22.5013 22.5021C22.3682 22.6352 22.1876 22.71 21.9993 22.71C21.811 22.71 21.6303 22.6352 21.4972 22.5021L17.3678 18.3727C17.0905 18.0954 17.0905 17.6459 17.3678 17.3685C17.6451 17.0912 18.0947 17.0912 18.372 17.3685L21.9993 20.9958L23.8695 19.1256C24.1468 18.8483 24.5964 18.8483 24.8737 19.1256C25.1509 19.4029 25.1509 19.8525 24.8736 20.1298Z" fill="#00D9D9"/>
</g>
<defs>
<clipPath id="clip0_52_1515">
<rect width="24" height="24" fill="white" transform="translate(10 10)"/>
</clipPath>
</defs>
</svg>
