<svg width="44" height="44" viewBox="0 0 44 44" fill="none" xmlns="http://www.w3.org/2000/svg">
<path fill-rule="evenodd" clip-rule="evenodd" d="M22 44C34.1503 44 44 34.1503 44 22C44 9.84974 34.1503 0 22 0C9.84974 0 0 9.84974 0 22C0 34.1503 9.84974 44 22 44Z" fill="#FFDDD8"/>
<g clip-path="url(#clip0_52_1535)">
<path d="M17.2852 11C15.1224 11 13.3566 12.7658 13.3566 14.9286V15.7143H12.5709C12.1369 15.7143 11.7852 16.0661 11.7852 16.5C11.7852 16.934 12.1369 17.2858 12.5709 17.2858H15.7137C15.9941 17.2835 16.252 17.132 16.3905 16.8883C16.4615 17.0087 16.4992 17.1459 16.4995 17.2858C16.4995 17.7197 16.1477 18.0715 15.7137 18.0715H13.3566V21.1944H12.5709C12.1369 21.1944 11.7852 21.5462 11.7852 21.9801C11.7852 22.4141 12.1369 22.7659 12.5709 22.7659H15.7137C15.9941 22.7636 16.252 22.6121 16.3905 22.3684C16.4615 22.4889 16.4992 22.6261 16.4995 22.7659C16.4995 23.1998 16.1477 23.5516 15.7137 23.5516H13.3566V26.7144H12.5709C12.1369 26.7144 11.7852 27.0662 11.7852 27.5001C11.7852 27.9341 12.1369 28.2859 12.5709 28.2859H15.7137C15.9941 28.2836 16.252 28.1321 16.3905 27.8884C16.4615 28.0088 16.4992 28.146 16.4995 28.2859C16.4995 28.7198 16.1477 29.0716 15.7137 29.0716H13.3566C13.3566 31.2344 15.1224 33.0002 17.2852 33.0002H28.2852C30.448 33.0002 32.2138 31.2344 32.2138 29.0716V14.9286C32.2137 12.7658 30.448 11 28.2852 11H17.2852ZM23.5709 14.9286C25.2973 14.9286 26.7137 16.345 26.7137 18.0715C26.7137 19.7979 25.2973 21.2143 23.5709 21.2143C21.8444 21.2143 20.428 19.7979 20.428 18.0715C20.428 16.345 21.8445 14.9286 23.5709 14.9286ZM23.5709 22C26.169 22 28.2852 24.1162 28.2852 26.7143V27.5C28.2852 27.9339 27.9334 28.2857 27.4994 28.2857C27.0655 28.2857 26.7137 27.9339 26.7137 27.5V26.7143C26.7137 24.9596 25.3256 23.5714 23.5708 23.5714C21.8161 23.5714 20.428 24.9596 20.428 26.7143V27.5C20.428 27.9339 20.0762 28.2857 19.6423 28.2857C19.2083 28.2857 18.8565 27.9339 18.8565 27.5V26.7143C18.8566 24.1162 20.9728 22 23.5709 22Z" fill="#FA1515"/>
</g>
<defs>
<clipPath id="clip0_52_1535">
<rect width="22" height="22" fill="white" transform="translate(11 11)"/>
</clipPath>
</defs>
</svg>
