<svg width="44" height="44" viewBox="0 0 44 44" fill="none" xmlns="http://www.w3.org/2000/svg">
<path fill-rule="evenodd" clip-rule="evenodd" d="M22 44C34.1503 44 44 34.1503 44 22C44 9.84974 34.1503 0 22 0C9.84974 0 0 9.84974 0 22C0 34.1503 9.84974 44 22 44Z" fill="#D4DBE7"/>
<g clip-path="url(#clip0_52_1404)">
<path d="M23.5755 14.9497H12.6258C11.1816 14.9497 10 16.1313 10 17.5755V26.4245C10 27.8687 11.1816 29.0503 12.6258 29.0503H23.5755C25.0197 29.0503 26.2013 27.8687 26.2013 26.4245V17.5755C26.2013 16.105 25.0197 14.9497 23.5755 14.9497Z" fill="#424A55"/>
<path d="M32.0583 16.3939C31.9007 16.4201 31.7432 16.4989 31.6119 16.5777L27.5156 18.9409V25.0328L31.6382 27.3961C32.3997 27.8425 33.3449 27.5799 33.7913 26.8184C33.9226 26.5821 34.0014 26.3195 34.0014 26.0306V17.9168C34.0014 16.9453 33.0824 16.1575 32.0583 16.3939Z" fill="#424A55"/>
</g>
<defs>
<clipPath id="clip0_52_1404">
<rect width="24" height="24" fill="white" transform="translate(10 10)"/>
</clipPath>
</defs>
</svg>
